<svg width="26" height="25" viewBox="0 0 26 25" fill="none" xmlns="http://www.w3.org/2000/svg">
<path d="M4.6668 5.48297L0.883301 1.70064L2.53413 0.0498047L6.31647 3.8333H24.0988C24.2806 3.83329 24.46 3.87579 24.6225 3.9574C24.785 4.03901 24.9262 4.15748 25.0347 4.30335C25.1433 4.44922 25.2163 4.61845 25.2479 4.79754C25.2794 4.97663 25.2687 5.16061 25.2165 5.33481L22.4165 14.6681C22.3444 14.9086 22.1968 15.1194 21.9954 15.2692C21.7941 15.4191 21.5498 15.5 21.2988 15.5H7.00013V17.8333H19.8335V20.1666H5.83347C5.52405 20.1666 5.2273 20.0437 5.00851 19.8249C4.78972 19.6061 4.6668 19.3094 4.6668 19V5.48297ZM7.00013 6.16664V13.1666H20.4308L22.5308 6.16664H7.00013ZM6.4168 24.8333C5.95267 24.8333 5.50755 24.6489 5.17936 24.3207C4.85118 23.9926 4.6668 23.5474 4.6668 23.0833C4.6668 22.6192 4.85118 22.1741 5.17936 21.8459C5.50755 21.5177 5.95267 21.3333 6.4168 21.3333C6.88093 21.3333 7.32605 21.5177 7.65424 21.8459C7.98243 22.1741 8.1668 22.6192 8.1668 23.0833C8.1668 23.5474 7.98243 23.9926 7.65424 24.3207C7.32605 24.6489 6.88093 24.8333 6.4168 24.8333ZM20.4168 24.8333C19.9527 24.8333 19.5076 24.6489 19.1794 24.3207C18.8512 23.9926 18.6668 23.5474 18.6668 23.0833C18.6668 22.6192 18.8512 22.1741 19.1794 21.8459C19.5076 21.5177 19.9527 21.3333 20.4168 21.3333C20.8809 21.3333 21.326 21.5177 21.6542 21.8459C21.9824 22.1741 22.1668 22.6192 22.1668 23.0833C22.1668 23.5474 21.9824 23.9926 21.6542 24.3207C21.326 24.6489 20.8809 24.8333 20.4168 24.8333Z" fill="#29272C"/>
</svg>
